<svg width="224" height="224" viewBox="0 0 224 224" fill="none" xmlns="http://www.w3.org/2000/svg">
<g clip-path="url(#clip0_4_97)">
<path fill-rule="evenodd" clip-rule="evenodd" d="M102.667 162.945C102.667 165.737 100.404 168 97.6118 168V168C95.0335 168 92.904 166.048 92.3341 163.534C90.2307 154.252 84.8666 146.15 76.8321 137.405C76.4731 137.014 75.4301 135.922 74.187 134.62C71.8435 132.166 68.7886 128.967 68.2641 128.315C61.6756 120.076 57.548 110.145 56.3566 99.6635C55.1652 89.1822 56.9584 78.5775 61.5298 69.0707C66.1011 59.5639 73.2648 51.5415 82.1956 45.9276C85.8222 43.6479 89.6804 41.803 93.6903 40.4158C103.43 37.0464 112.01 28.9824 112.01 18.676V18.676C97.9431 18.6738 84.1614 22.6454 72.2528 30.1335C60.3442 37.6215 50.7931 48.3213 44.6998 61.0003C38.6065 73.6793 36.2189 87.8217 37.8119 101.798C39.405 115.775 44.9139 129.017 53.7041 140C55.0382 141.663 56.8687 143.549 58.8964 145.638C65.6784 152.627 74.6668 161.889 74.6668 172.667V196C74.6668 200.951 76.6335 205.699 80.1341 209.199C83.6348 212.7 88.3828 214.667 93.3335 214.667H130.667C135.618 214.667 140.365 212.7 143.866 209.199C147.367 205.699 149.333 200.951 149.333 196V172.667C149.333 161.881 158.329 152.614 165.106 145.632C167.126 143.551 168.949 141.673 170.277 140.019C179.071 129.039 184.584 115.798 186.182 101.822C187.068 94.0659 186.729 86.2582 185.211 78.6776C183.186 68.5684 171.774 64.6344 162.477 69.0922V69.0922C167.044 78.601 168.833 89.2064 167.637 99.6872C166.441 110.168 162.309 120.098 155.717 128.333C155.176 129.009 151.877 132.463 149.502 134.95C148.398 136.106 147.494 137.053 147.159 137.415C139.132 146.151 133.769 154.253 131.666 163.534C131.096 166.048 128.967 168 126.389 168V168C123.597 168 121.333 165.737 121.333 162.945V130.667C121.333 125.512 117.155 121.333 112 121.333V121.333C106.845 121.333 102.667 125.512 102.667 130.667V162.945ZM98.0001 196C95.4228 196 93.3335 193.911 93.3335 191.333V191.333C93.3335 188.756 95.4228 186.667 98.0001 186.667H126C128.577 186.667 130.667 188.756 130.667 191.333V191.333C130.667 193.911 128.577 196 126 196H98.0001Z" fill="#F2F2F2"/>
<path d="M84.52 95.292L73.964 83.8L84.52 72.308H95.7L85.092 83.8L95.7 95.292H84.52ZM122.677 52.6L108.741 111.724H100.161L114.097 52.6H122.677ZM126.479 72.308H137.659L148.215 83.8L137.659 95.292H126.479L137.087 83.8L126.479 72.308Z" fill="white"/>
</g>
<defs>
<clipPath id="clip0_4_97">
<rect width="224" height="224" fill="white"/>
</clipPath>
</defs>
</svg>
