<svg width="14" height="28" viewBox="0 0 14 28" fill="none" xmlns="http://www.w3.org/2000/svg">
<path d="M18.6667 0.666664V3.33333H22.676C23.4067 3.33333 24 3.92666 24 4.65733V26.0093C24 26.74 23.4067 27.3333 22.676 27.3333H1.324C0.593333 27.3333 0 26.74 0 26.0093V4.65733C0 3.92666 0.593333 3.33333 1.324 3.33333H5.33333V0.666664H18.6667ZM5.33333 6H2.66667V24.6667H21.3333V6H18.6667V8.66666H5.33333V6ZM8 19.3333V22H5.33333V19.3333H8ZM8 15.3333V18H5.33333V15.3333H8ZM8 11.3333V14H5.33333V11.3333H8ZM16 3.33333H8V6H16V3.33333Z" fill="#F2F2F2"/>
</svg>
