<svg width="30" height="27" viewBox="0 0 30 27" fill="none" xmlns="http://www.w3.org/2000/svg">
<path d="M24.3333 27H5.66665C5.31302 27 4.97389 26.8595 4.72384 26.6095C4.47379 26.3594 4.33331 26.0203 4.33331 25.6667V13.6667H0.333313L14.1026 1.14933C14.3481 0.925965 14.6681 0.802185 15 0.802185C15.3319 0.802185 15.6518 0.925965 15.8973 1.14933L29.6666 13.6667H25.6666V25.6667C25.6666 26.0203 25.5262 26.3594 25.2761 26.6095C25.0261 26.8595 24.6869 27 24.3333 27ZM16.3333 24.3333H23V11.2093L15 3.93733L6.99998 11.2093V24.3333H13.6666V16.3333H16.3333V24.3333Z" fill="#000"/>
</svg>
