<svg width="28" height="27" viewBox="0 0 28 27" fill="none" xmlns="http://www.w3.org/2000/svg">
<path d="M10 0.333336V3H18V0.333336H20.6667V3H26C26.3536 3 26.6928 3.14048 26.9428 3.39053C27.1929 3.64058 27.3334 3.97971 27.3334 4.33334V25.6667C27.3334 26.0203 27.1929 26.3594 26.9428 26.6095C26.6928 26.8595 26.3536 27 26 27H2.00002C1.6464 27 1.30726 26.8595 1.05721 26.6095C0.807163 26.3594 0.666687 26.0203 0.666687 25.6667V4.33334C0.666687 3.97971 0.807163 3.64058 1.05721 3.39053C1.30726 3.14048 1.6464 3 2.00002 3H7.33335V0.333336H10ZM24.6667 9.66667H3.33335V24.3333H24.6667V9.66667ZM18.048 12.5147L19.9334 14.4L13.3334 21L8.61869 16.2853L10.5067 14.4L13.3347 17.2293L18.0494 12.5147H18.048Z" fill="#F2F2F2"/>
</svg>
