<svg width="28" height="28" viewBox="0 0 28 28" fill="none" xmlns="http://www.w3.org/2000/svg">
<path d="M19.3334 24.6667V3.33332H3.33335V23.3333C3.33335 23.6869 3.47383 24.0261 3.72388 24.2761C3.97393 24.5262 4.31306 24.6667 4.66669 24.6667H19.3334ZM23.3334 27.3333H4.66669C3.60582 27.3333 2.58841 26.9119 1.83826 26.1617C1.08811 25.4116 0.666687 24.3942 0.666687 23.3333V1.99999C0.666687 1.64637 0.807163 1.30723 1.05721 1.05718C1.30726 0.807132 1.6464 0.666656 2.00002 0.666656H20.6667C21.0203 0.666656 21.3594 0.807132 21.6095 1.05718C21.8595 1.30723 22 1.64637 22 1.99999V11.3333H27.3334V23.3333C27.3334 24.3942 26.9119 25.4116 26.1618 26.1617C25.4116 26.9119 24.3942 27.3333 23.3334 27.3333ZM22 14V23.3333C22 23.6869 22.1405 24.0261 22.3905 24.2761C22.6406 24.5262 22.9797 24.6667 23.3334 24.6667C23.687 24.6667 24.0261 24.5262 24.2762 24.2761C24.5262 24.0261 24.6667 23.6869 24.6667 23.3333V14H22ZM6.00002 5.99999H14V14H6.00002V5.99999ZM8.66669 8.66666V11.3333H11.3334V8.66666H8.66669ZM6.00002 15.3333H16.6667V18H6.00002V15.3333ZM6.00002 19.3333H16.6667V22H6.00002V19.3333Z" fill="#000"/>
</svg>
