<svg width="28" height="28" viewBox="0 0 28 28" fill="none" xmlns="http://www.w3.org/2000/svg">
<path d="M19.3333 24.6667V3.33333H3.33329V23.3333C3.33329 23.687 3.47377 24.0261 3.72382 24.2761C3.97387 24.5262 4.313 24.6667 4.66663 24.6667H19.3333ZM23.3333 27.3333H4.66663C3.60576 27.3333 2.58834 26.9119 1.8382 26.1618C1.08805 25.4116 0.666626 24.3942 0.666626 23.3333V2C0.666626 1.64638 0.807102 1.30724 1.05715 1.05719C1.3072 0.80714 1.64634 0.666664 1.99996 0.666664H20.6666C21.0202 0.666664 21.3594 0.80714 21.6094 1.05719C21.8595 1.30724 22 1.64638 22 2V11.3333H27.3333V23.3333C27.3333 24.3942 26.9119 25.4116 26.1617 26.1618C25.4116 26.9119 24.3942 27.3333 23.3333 27.3333ZM22 14V23.3333C22 23.687 22.1404 24.0261 22.3905 24.2761C22.6405 24.5262 22.9797 24.6667 23.3333 24.6667C23.6869 24.6667 24.0261 24.5262 24.2761 24.2761C24.5261 24.0261 24.6666 23.687 24.6666 23.3333V14H22ZM5.99996 6H14V14H5.99996V6ZM8.66663 8.66666V11.3333H11.3333V8.66666H8.66663ZM5.99996 15.3333H16.6666V18H5.99996V15.3333ZM5.99996 19.3333H16.6666V22H5.99996V19.3333Z" fill="#F2F2F2"/>
</svg>
