<svg width="24" height="28" viewBox="0 0 24 28" fill="none" xmlns="http://www.w3.org/2000/svg">
<path d="M24 22H4C3.64638 22 3.30724 22.1405 3.05719 22.3905C2.80714 22.6406 2.66667 22.9797 2.66667 23.3333C2.66667 23.687 2.80714 24.0261 3.05719 24.2761C3.30724 24.5262 3.64638 24.6667 4 24.6667H24V27.3333H4C2.93913 27.3333 1.92172 26.9119 1.17157 26.1618C0.421427 25.4116 0 24.3942 0 23.3333V3.33333C0 2.62609 0.280951 1.94781 0.781048 1.44771C1.28115 0.947616 1.95942 0.666664 2.66667 0.666664H24V22ZM2.66667 19.4C2.88267 19.356 3.10533 19.3333 3.33333 19.3333H21.3333V3.33333H2.66667V19.4ZM17.3333 10H6.66667V7.33333H17.3333V10Z" fill="#F2F2F2"/>
</svg>
