<svg width="24" height="28" viewBox="0 0 24 28" fill="none" xmlns="http://www.w3.org/2000/svg">
<path d="M0 22.6667V4.66667C0 3.6058 0.421427 2.58838 1.17157 1.83824C1.92172 1.08809 2.93913 0.666664 4 0.666664H22.6667C23.0203 0.666664 23.3594 0.80714 23.6095 1.05719C23.8595 1.30724 24 1.64638 24 2V26C24 26.3536 23.8595 26.6928 23.6095 26.9428C23.3594 27.1929 23.0203 27.3333 22.6667 27.3333H4.66667C3.42899 27.3333 2.24201 26.8417 1.36684 25.9665C0.491666 25.0913 0 23.9043 0 22.6667ZM21.3333 24.6667V20.6667H4.66667C4.13623 20.6667 3.62753 20.8774 3.25245 21.2525C2.87738 21.6275 2.66667 22.1362 2.66667 22.6667C2.66667 23.1971 2.87738 23.7058 3.25245 24.0809C3.62753 24.456 4.13623 24.6667 4.66667 24.6667H21.3333ZM9.33333 3.33333H4C3.64638 3.33333 3.30724 3.47381 3.05719 3.72386C2.80714 3.9739 2.66667 4.31304 2.66667 4.66667V18.4493C3.29159 18.1526 3.97487 17.9991 4.66667 18H21.3333V3.33333H18.6667V14L14 11.3333L9.33333 14V3.33333Z" fill="#F2F2F2"/>
</svg>
